<svg xmlns="http://www.w3.org/2000/svg" viewBox="0 0 36 32"><line x1="24.1" x2="28.3" y1="10.7" y2="10.7" class="svg-stroke svg-stroke-lilac"/><line x1="21.2" x2="26.9" y1="13.5" y2="13.5" class="svg-stroke svg-stroke-lilac"/><line x1="19.8" x2="19.7" y1="14.9" y2="9.2" class="svg-stroke svg-stroke-lilac"/><line x1="17" x2="16.9" y1="17.8" y2="12" class="svg-stroke svg-stroke-lilac"/><path d="M27.6,12.8L18.4,22c-1.6,1.6-5.7,0-5.7,0l0,0c0,0-1.6-4.1,0-5.7l9.2-9.2c1.6-1.6,4.1-1.6,5.7,0l0,0 C29.2,8.7,29.2,11.3,27.6,12.8z" class="svg-fill-gradient-accent-white-45deg"/><line x1="27.6" x2="13.1" y1="7.2" y2="21.7" class="svg-stroke svg-stroke-lilac"/><polygon points="10.4 25.4 8 25.8 12.9 20.8 14 21.8" class="svg-fill-gatsby"/><path fill="none" d="M27.6,12.8L18.4,22h-5.7l0,0v-5.7l9.2-9.2c1.6-1.6,4.1-1.6,5.7,0l0,0C29.2,8.7,29.2,11.3,27.6,12.8z" class="svg-stroke svg-stroke-gatsby"/></svg>