<svg xmlns="http://www.w3.org/2000/svg" viewBox="0 0 36 32"><circle cx="15.4" cy="19.2" r="6.8" class="svg-fill-brightest"/><polygon fill="#fff" points="25.3 21.5 17.7 21.5 21.5 14.8 25.3 8.2 29.2 14.8 33 21.5" class="svg-stroke svg-stroke-accent"/><path d="M15.5,13.4c3.4,0,6.1,2.7,6.1,6.1s-2.7,6.1-6.1,6.1s-6.1-2.7-6.1-6.1S12.1,13.4,15.5,13.4 M15.5,12 C11.4,12,8,15.4,8,19.5s3.4,7.5,7.5,7.5s7.5-3.4,7.5-7.5S19.6,12,15.5,12L15.5,12z" class="svg-fill-lilac"/><rect width="10.6" height="10.6" x="3.7" y="6.7" class="svg-fill-gradient-accent-white-top"/><path d="M13.6,7.4v9.2H4.4V7.4H13.6 M15,6H3v12h12V6L15,6z" class="svg-fill-gatsby"/></svg>