<svg xmlns="http://www.w3.org/2000/svg" xmlns:xlink="http://www.w3.org/1999/xlink" width="89pt" height="188pt" viewBox="0 0 89 188"><g id="graph0" class="graph" transform="scale(1 1) rotate(0) translate(4 184)"><title>graphname</title><polygon fill="#fff" stroke="transparent" points="-4 4 -4 -184 85 -184 85 4 -4 4" style="--darkreader-inline-fill:#212127;--darkreader-inline-stroke:transparent"/><g id="node1" class="node"><title>a</title><ellipse cx="54" cy="-162" fill="none" stroke="#000" rx="27" ry="18" style="--darkreader-inline-fill:none;--darkreader-inline-stroke:#e9e3d5"/><text x="54" y="-157.8" fill="#000" font-family="Times,serif" font-size="14" text-anchor="middle" style="--darkreader-inline-fill:#e9e3d5">a</text></g><g id="node2" class="node"><title>b</title><ellipse cx="27" cy="-90" fill="none" stroke="#000" rx="27" ry="18" style="--darkreader-inline-fill:none;--darkreader-inline-stroke:#e9e3d5"/><text x="27" y="-85.8" fill="#000" font-family="Times,serif" font-size="14" text-anchor="middle" style="--darkreader-inline-fill:#e9e3d5">b</text></g><g id="edge1" class="edge"><title>a-&gt;b</title><path fill="none" stroke="#000" d="M47.3258,-144.2022C44.2524,-136.0064 40.5384,-126.1024 37.1305,-117.0145" style="--darkreader-inline-fill:none;--darkreader-inline-stroke:#e9e3d5"/><polygon fill="#000" stroke="#000" points="40.386 -115.727 33.597 -107.593 33.831 -118.185 40.386 -115.727" style="--darkreader-inline-fill:#e9e3d5;--darkreader-inline-stroke:#e9e3d5"/></g><g id="node3" class="node"><title>c</title><ellipse cx="54" cy="-18" fill="none" stroke="#000" rx="27" ry="18" style="--darkreader-inline-fill:none;--darkreader-inline-stroke:#e9e3d5"/><text x="54" y="-13.8" fill="#000" font-family="Times,serif" font-size="14" text-anchor="middle" style="--darkreader-inline-fill:#e9e3d5">c</text></g><g id="edge3" class="edge"><title>a-&gt;c</title><path fill="none" stroke="#000" d="M57.7474,-144.0931C59.7466,-133.6241 61.9966,-120.1241 63,-108 64.3197,-92.0545 64.3197,-87.9455 63,-72 62.2945,-63.4753 60.9727,-54.2703 59.5551,-45.917" style="--darkreader-inline-fill:none;--darkreader-inline-stroke:#e9e3d5"/><polygon fill="#000" stroke="#000" points="62.969 -45.126 57.747 -35.907 56.08 -46.37 62.969 -45.126" style="--darkreader-inline-fill:#e9e3d5;--darkreader-inline-stroke:#e9e3d5"/></g><g id="edge2" class="edge"><title>b-&gt;c</title><path fill="none" stroke="#000" d="M33.6742,-72.2022C36.7476,-64.0064 40.4616,-54.1024 43.8695,-45.0145" style="--darkreader-inline-fill:none;--darkreader-inline-stroke:#e9e3d5"/><polygon fill="#000" stroke="#000" points="47.169 -46.185 47.403 -35.593 40.614 -43.727 47.169 -46.185" style="--darkreader-inline-fill:#e9e3d5;--darkreader-inline-stroke:#e9e3d5"/></g></g></svg>